HIERARCHY
ROOT Hips
{
	OFFSET -0.001795 -0.223333 0.028219
	CHANNELS 6 Xposition Yposition Zposition Zrotation Yrotation Xrotation 
	JOINT LeftUpLeg
	{
		OFFSET 0.069520 -0.091406 -0.006815
		CHANNELS 3 Zrotation Yrotation Xrotation
		JOINT LeftLeg
		{
			OFFSET 0.034277 -0.375199 -0.004496
			CHANNELS 3 Zrotation Yrotation Xrotation
			JOINT LeftFoot
			{
				OFFSET -0.013596 -0.397961 -0.043693
				CHANNELS 3 Zrotation Yrotation Xrotation
				JOINT LeftToe
				{
					OFFSET 0.026358 -0.055791 0.119288
					CHANNELS 3 Zrotation Yrotation Xrotation
					End Site
					{
						OFFSET 0.000000 0.000000 0.000000
					}
				}
			}
		}
	}
	JOINT RightUpLeg
	{
		OFFSET -0.067670 -0.090522 -0.004320
		CHANNELS 3 Zrotation Yrotation Xrotation
		JOINT RightLeg
		{
			OFFSET -0.038290 -0.382569 -0.008850
			CHANNELS 3 Zrotation Yrotation Xrotation
			JOINT RightFoot
			{
				OFFSET 0.015774 -0.398415 -0.042312
				CHANNELS 3 Zrotation Yrotation Xrotation
				JOINT RightToe
				{
					OFFSET -0.025372 -0.048144 0.123348
					CHANNELS 3 Zrotation Yrotation Xrotation
					End Site
					{
						OFFSET 0.000000 0.000000 0.000000
					}
				}
			}
		}
	}
	JOINT Spine
	{
		OFFSET -0.002533 0.108963 -0.026696
		CHANNELS 3 Zrotation Yrotation Xrotation
		JOINT Spine1
		{
			OFFSET 0.005487 0.135180 0.001092
			CHANNELS 3 Zrotation Yrotation Xrotation
			JOINT Spine2
			{
				OFFSET 0.001457 0.052922 0.025425
				CHANNELS 3 Zrotation Yrotation Xrotation
				JOINT Neck
				{
					OFFSET -0.002778 0.213870 -0.042857
					CHANNELS 3 Zrotation Yrotation Xrotation
					JOINT Head
					{
						OFFSET 0.005152 0.064970 0.051349
						CHANNELS 3 Zrotation Yrotation Xrotation
						End Site
						{
							OFFSET 0.000000 0.000000 0.000000
						}
					}
				}
				JOINT LeftShoulder
				{
					OFFSET 0.078845 0.121749 -0.034090
					CHANNELS 3 Zrotation Yrotation Xrotation
					JOINT LeftArm
					{
						OFFSET 0.090977 0.030469 -0.008868
						CHANNELS 3 Zrotation Yrotation Xrotation
						JOINT LeftForeArm
						{
							OFFSET 0.259612 -0.012772 -0.027456
							CHANNELS 3 Zrotation Yrotation Xrotation
							JOINT LeftHand
							{
								OFFSET 0.249234 0.008986 -0.001171
								CHANNELS 3 Zrotation Yrotation Xrotation
								End Site
								{
									OFFSET 0.000000 0.000000 0.000000
								}
							}
						}
					}
				}
				JOINT RightShoulder
				{
					OFFSET -0.081759 0.118833 -0.038615
					CHANNELS 3 Zrotation Yrotation Xrotation
					JOINT RightArm
					{
						OFFSET -0.096012 0.032551 -0.009143
						CHANNELS 3 Zrotation Yrotation Xrotation
						JOINT RightForeArm
						{
							OFFSET -0.253742 -0.013329 -0.021401
							CHANNELS 3 Zrotation Yrotation Xrotation
							JOINT RightHand
							{
								OFFSET -0.255298 0.007772 -0.005559
								CHANNELS 3 Zrotation Yrotation Xrotation
								End Site
								{
									OFFSET 0.000000 0.000000 0.000000
								}
							}
						}
					}
				}
			}
		}
	}
}
MOTION
Frames: 15
Frame Time: 0.050000
0.000000 0.953413 0.000000 1.120831 -10.837493 9.662661 2.429362 -0.669466 -9.582782 -0.971731 0.216382 -3.745512 -6.140727 -3.743477 20.323027 0.000000 0.000000 0.000000 -3.832123 0.795516 -8.024824 -1.771049 -0.198855 -7.031275 -4.333081 -14.752526 14.287657 0.000000 0.000000 0.000000 6.080045 -0.481951 2.752885 -3.779846 1.683000 -2.469486 -0.749911 8.440537 5.608951 10.310138 -6.489503 -8.185301 0.000000 0.000000 0.000000 -14.508115 -10.585949 3.315024 -58.027892 -23.223684 4.654968 -7.049069 -27.681360 2.698241 0.000000 0.000000 0.000000 10.860366 10.160350 4.179562 55.241378 33.670113 10.806858 -10.450444 19.445451 -0.790532 0.000000 0.000000 0.000000 
-0.000564 0.952226 0.002796 0.945926 -11.617980 10.322667 2.294386 -0.639702 -8.884303 -0.486333 0.238302 -5.662448 -5.734878 -3.326903 20.260267 0.000000 0.000000 0.000000 -3.577451 0.856010 -8.683953 -1.999692 -0.191733 -6.993187 -4.021831 -14.242913 13.883947 0.000000 0.000000 0.000000 6.583553 -0.340167 0.880870 -3.557373 1.544217 -3.279503 -2.133513 9.521496 6.389464 12.592026 -7.729105 -9.793447 0.000000 0.000000 0.000000 -14.618718 -8.689750 2.221558 -57.285087 -21.851528 3.766676 -10.674329 -28.496146 3.651360 0.000000 0.000000 0.000000 10.328859 8.265722 3.417167 58.461235 32.505055 11.068331 -8.259166 20.905956 -0.474783 0.000000 0.000000 0.000000 
-0.001430 0.952169 0.005674 1.065552 -10.569354 9.422930 2.149572 -0.584841 -7.758935 -0.353527 0.234299 -5.842640 -6.312138 -4.015546 20.161231 0.000000 0.000000 0.000000 -3.436505 0.763937 -7.690613 -2.269389 -0.156111 -6.358669 -4.573639 -14.977013 13.575736 0.000000 0.000000 0.000000 5.763795 -0.270772 0.653326 -3.363264 1.441323 -3.997508 -2.427558 9.742735 6.866828 12.018637 -7.483619 -9.080465 0.000000 0.000000 0.000000 -13.423885 -7.160504 1.409718 -57.541320 -19.796416 2.625368 -14.173807 -28.228959 4.434692 0.000000 0.000000 0.000000 10.033427 5.676952 2.325773 58.681238 28.868792 9.128733 -2.596061 24.654953 0.561491 0.000000 0.000000 0.000000 
-0.002310 0.951967 0.008554 0.820599 -10.101489 9.840132 2.776728 -0.543492 -7.542420 -0.891813 0.304222 -6.708384 -6.592403 -4.277326 20.337056 0.000000 0.000000 0.000000 -3.440165 0.754875 -7.560856 -1.693340 -0.194018 -6.835757 -4.788490 -15.310403 13.716366 0.000000 0.000000 0.000000 5.496607 -0.168094 -0.445989 -3.364774 1.453073 -3.783900 -2.521986 9.417441 6.826852 12.103153 -7.287157 -10.092966 0.000000 0.000000 0.000000 -12.391324 -5.069944 0.527093 -59.534119 -18.307864 1.946010 -13.822942 -28.234167 4.344328 0.000000 0.000000 0.000000 8.912404 2.698229 0.944859 61.924836 24.843493 7.674014 1.069225 27.952820 1.518108 0.000000 0.000000 0.000000 
-0.003058 0.951794 0.011313 0.638249 -9.267615 9.215566 2.651493 -0.523082 -7.070913 -0.216979 0.234695 -6.134309 -6.926599 -4.806429 19.871363 0.000000 0.000000 0.000000 -2.938258 0.672497 -6.672228 -2.045236 -0.172049 -6.553340 -5.177781 -15.844306 13.583885 0.000000 0.000000 0.000000 5.181602 -0.121709 -0.753118 -3.384377 1.460756 -4.050869 -2.756756 8.999298 7.148254 11.338737 -6.912189 -9.464524 0.000000 0.000000 0.000000 -12.994157 -4.169206 0.043736 -58.834131 -16.843692 1.129022 -13.528125 -26.697902 4.024224 0.000000 0.000000 0.000000 8.709020 0.549685 -0.007512 62.170783 19.703564 4.782796 8.075422 31.694907 3.677729 0.000000 0.000000 0.000000 
-0.003700 0.951975 0.013370 0.389915 -8.870923 9.417995 2.772284 -0.533797 -7.308961 0.137213 0.198946 -5.877533 -7.067908 -5.005016 19.742450 0.000000 0.000000 0.000000 -2.479795 0.658322 -6.556188 -2.282331 -0.173552 -6.721279 -5.322578 -16.082740 13.772691 0.000000 0.000000 0.000000 4.602098 -0.100180 -0.861164 -3.013369 1.301291 -4.186810 -3.230056 8.821492 6.755568 10.950492 -6.771348 -8.777506 0.000000 0.000000 0.000000 -13.020990 -2.482670 -0.780028 -59.067832 -14.588257 0.006239 -13.054150 -25.019457 3.637963 0.000000 0.000000 0.000000 8.444712 -1.356724 -0.836277 62.561541 15.219254 2.401325 15.534557 34.390855 6.338143 0.000000 0.000000 0.000000 
-0.004013 0.951822 0.014870 0.239777 -8.848807 9.001117 2.812381 -0.519027 -7.140545 0.351402 0.151857 -5.142488 -6.992159 -5.059373 19.326619 0.000000 0.000000 0.000000 -2.262360 0.639395 -6.383589 -2.346731 -0.134111 -5.981613 -5.371290 -16.104268 13.426022 0.000000 0.000000 0.000000 4.279078 -0.084177 -0.879398 -3.141270 1.351019 -4.393396 -3.346380 8.603924 6.761457 10.518052 -6.415212 -9.026658 0.000000 0.000000 0.000000 -13.809876 -1.517830 -1.302341 -58.426852 -13.115214 -0.722629 -12.288635 -21.854087 3.028029 0.000000 0.000000 0.000000 8.461666 -2.318917 -1.283644 62.523997 11.917063 0.558058 19.814747 36.217761 8.132939 0.000000 0.000000 0.000000 
-0.004005 0.952140 0.016015 0.063278 -9.013122 8.931384 2.833835 -0.510341 -7.040170 0.601939 0.123897 -4.951468 -6.878829 -4.958169 19.232912 0.000000 0.000000 0.000000 -2.128498 0.647256 -6.489926 -2.282383 -0.113199 -5.520129 -5.293604 -15.975819 13.327995 0.000000 0.000000 0.000000 4.132687 -0.073160 -0.952717 -3.080576 1.320849 -4.490650 -3.544473 8.657125 6.572459 10.278314 -6.554073 -7.649959 0.000000 0.000000 0.000000 -13.467662 -0.852263 -1.572361 -58.764764 -11.260485 -1.663644 -11.635291 -19.539914 2.585991 0.000000 0.000000 0.000000 8.185347 -3.459347 -1.770868 62.505207 9.245826 -0.859458 24.861270 37.688324 10.298418 0.000000 0.000000 0.000000 
-0.003972 0.952199 0.017347 -0.078880 -9.264394 8.706911 2.949206 -0.491156 -6.865821 0.597616 0.106327 -4.555414 -6.708392 -4.834490 19.016938 0.000000 0.000000 0.000000 -1.893107 0.611637 -6.117244 -2.474420 -0.110886 -5.622117 -5.134376 -15.722616 13.293799 0.000000 0.000000 0.000000 4.205515 -0.066504 -1.010637 -3.348352 1.440665 -4.230028 -3.676052 8.159585 6.178917 9.762226 -6.314520 -7.119809 0.000000 0.000000 0.000000 -13.325044 0.255410 -1.971868 -58.898927 -9.403937 -2.567656 -11.265331 -17.514063 2.273010 0.000000 0.000000 0.000000 7.722890 -4.189369 -2.111332 62.370464 7.133336 -2.002281 27.950669 39.423207 11.905312 0.000000 0.000000 0.000000 
-0.004007 0.952121 0.018950 -0.128089 -9.528504 8.609631 2.966553 -0.474472 -6.621675 0.589603 0.105214 -4.522764 -6.557477 -4.701622 18.894002 0.000000 0.000000 0.000000 -2.211352 0.601673 -5.953028 -2.053461 -0.125129 -5.581915 -4.794241 -15.136016 13.140072 0.000000 0.000000 0.000000 4.169943 -0.048346 -1.202916 -3.400632 1.447716 -4.629542 -3.806787 8.104727 6.409799 9.817884 -6.434639 -6.854379 0.000000 0.000000 0.000000 -12.428014 0.863840 -2.081040 -59.141163 -7.536212 -3.567878 -12.144204 -17.088377 2.352102 0.000000 0.000000 0.000000 7.074849 -5.510357 -2.629993 62.197844 4.459419 -3.439444 33.788501 41.950642 15.175681 0.000000 0.000000 0.000000 
-0.004250 0.952109 0.020706 -0.219210 -9.721660 8.485331 3.028709 -0.428298 -5.896747 0.605762 0.137031 -5.268911 -6.501051 -4.620124 18.969068 0.000000 0.000000 0.000000 -2.163856 0.561646 -5.492551 -2.259198 -0.133265 -5.906335 -4.297185 -14.291954 13.082297 0.000000 0.000000 0.000000 4.285964 -0.032357 -1.397478 -3.392236 1.444194 -4.576023 -3.867504 7.761918 6.507585 9.440475 -6.368811 -6.002060 0.000000 0.000000 0.000000 -11.922038 1.790780 -2.354729 -58.591317 -5.805580 -4.401139 -13.574574 -18.350861 2.774422 0.000000 0.000000 0.000000 6.640951 -6.585053 -3.066474 61.696519 2.047579 -4.721792 41.443590 45.407114 20.086446 0.000000 0.000000 0.000000 
-0.004496 0.951936 0.022215 -0.196692 -10.020181 8.310530 2.996242 -0.396649 -5.384479 0.561301 0.154339 -5.580101 -6.366919 -4.484309 18.932648 0.000000 0.000000 0.000000 -2.448068 0.568287 -5.512605 -2.294422 -0.108536 -5.434582 -3.650606 -13.160979 12.848999 0.000000 0.000000 0.000000 4.491491 -0.026266 -1.473509 -3.341634 1.432240 -4.205548 -4.193101 7.541708 6.318635 9.966587 -6.922226 -5.354399 0.000000 0.000000 0.000000 -11.261235 2.222243 -2.406663 -58.138806 -4.785529 -4.850867 -15.925558 -20.471369 3.537965 0.000000 0.000000 0.000000 6.113338 -7.862586 -3.550138 61.361821 0.091918 -5.705882 51.591791 47.741815 26.431018 0.000000 0.000000 0.000000 
-0.004702 0.951864 0.023116 -0.163303 -10.499854 8.218329 2.735111 -0.375034 -4.925474 0.879229 0.149925 -5.982141 -6.133269 -4.219964 18.934807 0.000000 0.000000 0.000000 -2.650649 0.573239 -5.517715 -2.644571 -0.089585 -5.324859 -2.728755 -11.619058 12.856469 0.000000 0.000000 0.000000 4.618268 -0.037284 -1.337619 -3.296049 1.405138 -4.290572 -4.285233 7.573093 6.463121 10.205341 -7.240266 -4.837933 0.000000 0.000000 0.000000 -10.535691 2.324395 -2.308510 -57.314787 -4.206053 -5.070245 -18.873506 -23.806760 4.778890 0.000000 0.000000 0.000000 5.776910 -8.857918 -3.921808 60.755209 -0.986917 -6.232322 62.792224 49.154931 33.702358 0.000000 0.000000 0.000000 
-0.004672 0.951784 0.023297 -0.222778 -10.916999 8.103939 2.630314 -0.358988 -4.658103 1.098558 0.138402 -6.073430 -5.904304 -3.983309 18.848543 0.000000 0.000000 0.000000 -2.753989 0.561358 -5.336364 -2.948332 -0.082944 -5.418261 -1.817242 -10.037816 12.758065 0.000000 0.000000 0.000000 4.746606 -0.041842 -1.278241 -3.254892 1.389479 -4.125962 -4.251698 7.640322 6.390926 10.744051 -7.572156 -5.205863 0.000000 0.000000 0.000000 -9.702957 2.544214 -2.262190 -57.021437 -4.621922 -4.843370 -20.992905 -26.942467 5.967222 0.000000 0.000000 0.000000 5.141499 -8.694948 -3.769421 60.903803 0.011477 -5.739996 69.224632 50.687634 38.912397 0.000000 0.000000 0.000000 
-0.004354 0.951791 0.022691 -0.122184 -11.114714 8.065662 2.471329 -0.354326 -4.513911 1.130847 0.148778 -6.316225 -5.834563 -3.875824 18.943728 0.000000 0.000000 0.000000 -2.976300 0.556119 -5.196217 -3.158796 -0.115421 -6.148586 -1.281340 -9.423436 13.678213 0.000000 0.000000 0.000000 4.910163 -0.055756 -1.146398 -3.135599 1.341820 -3.975083 -4.241825 7.664660 6.418648 11.260730 -7.938821 -5.343668 0.000000 0.000000 0.000000 -8.861126 1.662637 -1.754719 -57.495252 -6.102057 -4.183651 -22.398947 -29.302253 6.908902 0.000000 0.000000 0.000000 5.126873 -7.825863 -3.421582 61.013387 3.356522 -4.051080 70.366034 52.365175 41.105900 0.000000 0.000000 0.000000 
